<svg width="808" height="142" viewBox="0 0 808 142" fill="none" xmlns="http://www.w3.org/2000/svg">
  <path d="M20.9681 42.598V50.9468C28.1162 44.2349 35.6202 40.8786 43.4785 40.8786C50.1905 40.8786 55.7404 43.6352 60.1341 49.1457C64.5263 54.6581 66.7229 61.6972 66.7229 70.263V112.991H45.4418V73.6195C45.4418 69.5816 44.3369 66.1713 42.127 63.3878C39.9165 60.6057 37.2296 59.2142 34.0636 59.2142C30.245 59.2142 27.1071 60.9736 24.6521 64.4929C22.1963 68.0132 20.9681 72.5556 20.9681 78.1217V112.991H0.0141602V42.598H20.9681Z" fill="currentColor"/>
  <path d="M137.607 77.9579C137.607 73.2114 136.051 69.0644 132.94 65.517C129.83 61.9705 126.202 60.1966 122.055 60.1966C117.743 60.1966 114.034 61.862 110.922 65.1893C107.813 68.5181 106.257 72.5023 106.257 77.1392C106.257 82.2149 107.799 86.5257 110.883 90.0716C113.964 93.6195 117.689 95.3925 122.055 95.3925C126.202 95.3925 129.83 93.6607 132.94 90.1952C136.051 86.7302 137.607 82.6516 137.607 77.9579ZM85.4677 77.9579C85.4677 67.1005 88.9317 58.2322 95.8627 51.356C102.792 44.4812 111.688 41.0432 122.547 41.0432C132.641 41.0432 141.112 44.5503 147.961 51.5604C154.808 58.5734 158.233 67.2638 158.233 77.6307C158.233 88.2177 154.808 97.0021 147.961 103.987C141.112 110.972 132.533 114.464 122.219 114.464C110.595 114.464 101.564 110.768 95.127 103.373C88.6874 95.9795 85.4677 87.5076 85.4677 77.9579Z" fill="currentColor"/>
  <path d="M196.292 42.5982V52.9929H196.618C198.693 49.5017 201.108 46.7311 203.863 44.6854C206.618 42.6397 209.17 41.6158 211.518 41.6158C212.934 41.6158 214.217 41.7264 215.363 41.9429V64.8614C213.616 64.5337 211.898 64.3709 210.207 64.3709C205.896 64.3709 202.554 65.8846 200.18 68.9124C197.807 71.9412 196.618 76.1851 196.618 81.6417V112.991H175.339V42.5982H196.292Z" fill="currentColor"/>
  <path d="M196.292 42.5982V52.9929H196.618C198.693 49.5017 201.108 46.7311 203.863 44.6854C206.618 42.6397 209.17 41.6158 211.518 41.6158C212.934 41.6158 214.217 41.7264 215.363 41.9429V64.8614C213.616 64.5337 211.898 64.3709 210.207 64.3709C205.896 64.3709 202.554 65.8846 200.18 68.9124C197.807 71.9412 196.618 76.1851 196.618 81.6417V112.991H175.339V42.5982H196.292Z" stroke="currentColor" stroke-width="1.517" stroke-miterlimit="10"/>
  <path d="M252.444 2L264.313 12.0676C263.875 12.7771 263.193 13.7862 262.266 15.0955C250.643 31.5212 244.832 50.0743 244.832 70.755C244.832 81.3415 246.183 91.1762 248.883 100.261C251.585 109.347 256.727 119.182 264.313 129.769L252.444 140C244.148 130.122 238.105 119.074 234.313 106.85C230.519 94.6282 228.624 82.3777 228.624 70.0997C228.624 58.4769 230.508 46.7723 234.273 34.9861C238.037 23.1992 244.094 12.2042 252.444 2Z" fill="currentColor"/>
  <path d="M252.444 2L264.313 12.0676C263.875 12.7771 263.193 13.7862 262.266 15.0955C250.643 31.5212 244.832 50.0743 244.832 70.755C244.832 81.3415 246.183 91.1762 248.883 100.261C251.585 109.347 256.727 119.182 264.313 129.769L252.444 140C244.148 130.122 238.105 119.074 234.313 106.85C230.519 94.6282 228.624 82.3777 228.624 70.0997C228.624 58.4769 230.508 46.7723 234.273 34.9861C238.037 23.1992 244.094 12.2042 252.444 2Z" stroke="currentColor" stroke-width="1.517" stroke-miterlimit="10"/>
  <path d="M289.102 103.988H307.359C310.991 103.988 314.224 103.101 317.056 101.325C319.888 99.5509 322.276 97.1638 324.221 94.1617C326.164 91.1625 327.622 87.6764 328.594 83.7023C329.565 79.7307 330.052 75.5054 330.052 71.0247C330.052 66.1235 329.565 61.6649 328.594 57.6486C327.622 53.6358 326.184 50.1687 324.283 47.2527C322.381 44.3366 320.015 42.0765 317.183 40.4697C314.352 38.8656 311.117 38.0609 307.485 38.0609H289.102V103.988ZM278.958 29.0594H309.386C314.372 29.0594 318.787 30.2856 322.636 32.736C326.481 35.1884 329.692 38.3785 332.271 42.3077C334.847 46.2382 336.814 50.6974 338.167 55.6842C339.516 60.6719 340.194 65.7435 340.194 70.8976C340.194 76.1396 339.516 81.2941 338.167 86.3653C336.814 91.4369 334.87 95.9377 332.335 99.868C329.798 103.798 326.67 106.968 322.953 109.376C319.232 111.786 314.965 112.99 310.147 112.99H278.958V29.0594Z" fill="currentColor"/>
  <path d="M404.346 29.0592V38.0608H363.65V65.1923H401.938V74.1938H363.65V103.988H406.121V112.99H353.507V29.0592H404.346Z" fill="currentColor"/>
  <path d="M423.616 29.0592L443.775 96.1277H443.902L463.934 29.0592H475.09L449.481 112.99H438.195L412.459 29.0592H423.616Z" fill="currentColor"/>
  <path d="M482.162 12.0676L494.193 2C502.542 12.0957 508.57 23.1583 512.284 35.1904C515.992 47.2226 517.847 59.0784 517.847 70.755C517.847 97.5484 510.073 120.629 494.52 140L482.162 129.769C495.204 112.691 501.725 93.0738 501.725 70.9183C501.725 48.818 495.204 29.2022 482.162 12.0676Z" fill="currentColor"/>
  <path d="M482.162 12.0676L494.193 2C502.542 12.0957 508.57 23.1583 512.284 35.1904C515.992 47.2226 517.847 59.0784 517.847 70.755C517.847 97.5484 510.073 120.629 494.52 140L482.162 129.769C495.204 112.691 501.725 93.0738 501.725 70.9183C501.725 48.818 495.204 29.2022 482.162 12.0676Z" stroke="currentColor" stroke-width="1.517" stroke-miterlimit="10"/>
  <path d="M537.244 101.285C537.244 97.684 538.516 94.6014 541.053 92.0354C543.591 89.4715 546.632 88.1885 550.18 88.1885C553.778 88.1885 556.863 89.4715 559.426 92.0354C561.994 94.6014 563.276 97.684 563.276 101.285C563.276 104.833 561.994 107.86 559.426 110.37C556.863 112.882 553.778 114.136 550.18 114.136C546.576 114.136 543.521 112.882 541.013 110.37C538.501 107.86 537.244 104.833 537.244 101.285ZM536.918 58.3134C536.918 54.767 538.199 51.7116 540.767 49.1457C543.33 46.5814 546.416 45.2983 550.019 45.2983C553.617 45.2983 556.698 46.5814 559.266 49.1457C561.829 51.7116 563.11 54.767 563.11 58.3134C563.11 61.9142 561.829 64.9711 559.266 67.4803C556.698 69.991 553.617 71.2453 550.019 71.2453C546.416 71.2453 543.33 69.991 540.767 67.4803C538.199 64.9711 536.918 61.9142 536.918 58.3134Z" fill="currentColor"/>
  <path d="M537.244 101.285C537.244 97.684 538.516 94.6014 541.053 92.0354C543.591 89.4715 546.632 88.1885 550.18 88.1885C553.778 88.1885 556.863 89.4715 559.426 92.0354C561.994 94.6014 563.276 97.684 563.276 101.285C563.276 104.833 561.994 107.86 559.426 110.37C556.863 112.882 553.778 114.136 550.18 114.136C546.576 114.136 543.521 112.882 541.013 110.37C538.501 107.86 537.244 104.833 537.244 101.285ZM536.918 58.3134C536.918 54.767 538.199 51.7116 540.767 49.1457C543.33 46.5814 546.416 45.2983 550.019 45.2983C553.617 45.2983 556.698 46.5814 559.266 49.1457C561.829 51.7116 563.11 54.767 563.11 58.3134C563.11 61.9142 561.829 64.9711 559.266 67.4803C556.698 69.991 553.617 71.2453 550.019 71.2453C546.416 71.2453 543.33 69.991 540.767 67.4803C538.199 64.9711 536.918 61.9142 536.918 58.3134Z" stroke="currentColor" stroke-width="1.517" stroke-miterlimit="10"/>
  <path d="M633.094 88.5978V109.552C625.893 112.826 619.917 114.464 615.168 114.464C604.58 114.464 595.74 110.971 588.649 103.986C581.553 97.0018 578.01 88.2711 578.01 77.7932C578.01 67.2629 581.297 58.5313 587.87 51.6008C594.449 44.6718 602.781 41.2057 612.877 41.2057C619.917 41.2057 626.737 42.8432 633.34 46.1171V65.9252C627.229 62.9783 621.636 61.5048 616.56 61.5048C611.867 61.5048 608.088 62.9376 605.223 65.8021C602.359 68.667 600.926 72.4471 600.926 77.1379C600.926 81.7773 602.343 85.5283 605.183 88.3928C608.022 91.2582 611.761 92.69 616.395 92.69C620.601 92.69 626.164 91.3266 633.094 88.5978Z" fill="currentColor"/>
  <path d="M633.094 88.5978V109.552C625.893 112.826 619.917 114.464 615.168 114.464C604.58 114.464 595.74 110.971 588.649 103.986C581.553 97.0018 578.01 88.2711 578.01 77.7932C578.01 67.2629 581.297 58.5313 587.87 51.6008C594.449 44.6718 602.781 41.2057 612.877 41.2057C619.917 41.2057 626.737 42.8432 633.34 46.1171V65.9252C627.229 62.9783 621.636 61.5048 616.56 61.5048C611.867 61.5048 608.088 62.9376 605.223 65.8021C602.359 68.667 600.926 72.4471 600.926 77.1379C600.926 81.7773 602.343 85.5283 605.183 88.3928C608.022 91.2582 611.761 92.69 616.395 92.69C620.601 92.69 626.164 91.3266 633.094 88.5978Z" stroke="currentColor" stroke-width="1.517" stroke-miterlimit="10"/>
  <path d="M699.967 77.9579C699.967 73.2114 698.415 69.0644 695.304 65.517C692.193 61.9705 688.56 60.1966 684.419 60.1966C680.107 60.1966 676.393 61.862 673.288 65.1893C670.177 68.5181 668.619 72.5023 668.619 77.1392C668.619 82.2149 670.157 86.5257 673.242 90.0716C676.328 93.6195 680.052 95.3925 684.419 95.3925C688.56 95.3925 692.193 93.6607 695.304 90.1952C698.415 86.7302 699.967 82.6516 699.967 77.9579ZM647.829 77.9579C647.829 67.1005 651.291 58.2322 658.221 51.356C665.151 44.4812 674.046 41.0432 684.906 41.0432C695.002 41.0432 703.47 44.5503 710.325 51.5604C717.169 58.5734 720.597 67.2638 720.597 77.6307C720.597 88.2177 717.169 97.0021 710.325 103.987C703.47 110.972 694.892 114.464 684.58 114.464C672.956 114.464 663.925 110.768 657.488 103.373C651.045 95.9795 647.829 87.5076 647.829 77.9579Z" fill="currentColor"/>
  <path d="M699.967 77.9579C699.967 73.2114 698.415 69.0644 695.304 65.517C692.193 61.9705 688.56 60.1966 684.419 60.1966C680.107 60.1966 676.393 61.862 673.288 65.1893C670.177 68.5181 668.619 72.5023 668.619 77.1392C668.619 82.2149 670.157 86.5257 673.242 90.0716C676.328 93.6195 680.052 95.3925 684.419 95.3925C688.56 95.3925 692.193 93.6607 695.304 90.1952C698.415 86.7302 699.967 82.6516 699.967 77.9579ZM647.829 77.9579C647.829 67.1005 651.291 58.2322 658.221 51.356C665.151 44.4812 674.046 41.0432 684.906 41.0432C695.002 41.0432 703.47 44.5503 710.325 51.5604C717.169 58.5734 720.597 67.2638 720.597 77.6307C720.597 88.2177 717.169 97.0021 710.325 103.987C703.47 110.972 694.892 114.464 684.58 114.464C672.956 114.464 663.925 110.768 657.488 103.373C651.045 95.9795 647.829 87.5076 647.829 77.9579Z" stroke="currentColor" stroke-width="1.517" stroke-miterlimit="10"/>
  <path d="M761.272 42.598V50.9468C768.418 44.2349 775.921 40.8786 783.781 40.8786C790.495 40.8786 796.048 43.6352 800.44 49.1457C804.832 54.6581 807.028 61.6972 807.028 70.263V112.991H785.746V73.6195C785.746 69.5816 784.64 66.1713 782.434 63.3878C780.223 60.6057 777.534 59.2142 774.368 59.2142C770.549 59.2142 767.413 60.9736 764.956 64.4929C762.503 68.0132 761.272 72.5556 761.272 78.1217V112.991H740.321V42.598H761.272Z" fill="currentColor"/>
  <path d="M761.272 42.598V50.9468C768.418 44.2349 775.921 40.8786 783.781 40.8786C790.495 40.8786 796.048 43.6352 800.44 49.1457C804.832 54.6581 807.028 61.6972 807.028 70.263V112.991H785.746V73.6195C785.746 69.5816 784.64 66.1713 782.434 63.3878C780.223 60.6057 777.534 59.2142 774.368 59.2142C770.549 59.2142 767.413 60.9736 764.956 64.4929C762.503 68.0132 761.272 72.5556 761.272 78.1218V112.991H740.321V42.598H761.272Z" stroke="currentColor" stroke-width="1.517" stroke-miterlimit="10"/>
</svg>